<?xml version="1.0" encoding="UTF-8" standalone="no"?>
<!-- Created with Inkscape (http://www.inkscape.org/) -->

<svg
   width="500"
   height="190"
   viewBox="0 0 500 190"
   version="1.1"
   id="svg1"
   inkscape:version="1.3.2 (091e20e, 2023-11-25, custom)"
   sodipodi:docname="kali_mc.svg"
   xmlns:inkscape="http://www.inkscape.org/namespaces/inkscape"
   xmlns:sodipodi="http://sodipodi.sourceforge.net/DTD/sodipodi-0.dtd"
   xmlns="http://www.w3.org/2000/svg"
   xmlns:svg="http://www.w3.org/2000/svg">
  <sodipodi:namedview
     id="namedview1"
     pagecolor="#00000f"
     bordercolor="#000000"
     borderopacity="0.25"
     inkscape:showpageshadow="2"
     inkscape:pageopacity="0.0"
     inkscape:pagecheckerboard="0"
     inkscape:deskcolor="#d1d1d1"
     inkscape:document-units="px"
     inkscape:zoom="1.7182927"
     inkscape:cx="351.51171"
     inkscape:cy="231.33428"
     inkscape:window-width="1920"
     inkscape:window-height="1017"
     inkscape:window-x="-8"
     inkscape:window-y="-8"
     inkscape:window-maximized="1"
     inkscape:current-layer="svg1"
     showguides="true">
    <sodipodi:guide
       position="164.11639,3.08"
       orientation="0,-1"
       id="guide2"
       inkscape:locked="false" />
  </sodipodi:namedview>
  <defs
     id="defs1" />
  <path
     d="m 32.346524,82.4213 h 8.516655 q 4.433327,0 6.999989,-1.049998 2.68333,-1.166665 5.01666,-3.849995 L 108.52975,14.521399 q 2.56666,-2.916662 4.89999,-4.083327 2.45,-1.2833316 6.18332,-1.2833316 h 19.24998 L 75.163129,81.137969 q -2.449997,2.683329 -4.66666,4.549993 -2.099997,1.866664 -4.549994,3.033329 3.266662,1.049998 5.716659,3.149995 2.449996,2.099997 5.133326,5.249993 l 66.4999,79.216551 h -19.59997 q -2.21666,0 -3.73333,-0.35 -1.51666,-0.35 -2.68333,-0.93333 -1.04999,-0.58333 -1.98333,-1.51667 -0.93333,-0.93333 -1.86666,-1.98333 L 55.679824,105.17127 q -1.283332,-1.4 -2.449997,-2.33333 -1.049998,-1.05 -2.566663,-1.75 -1.399998,-0.7 -3.383328,-0.93333 -1.866664,-0.350002 -4.66666,-0.350002 H 32.346524 V 176.33783 H 9.8298907 V 9.1547404 H 32.346524 Z m 197.582956,93.91653 h -9.21666 q -3.03333,0 -4.89999,-0.93333 -1.86666,-0.93333 -2.45,-3.96666 l -2.33333,-10.96665 q -4.66666,4.19999 -9.09998,7.58332 -4.43333,3.26666 -9.33332,5.59999 -4.9,2.21666 -10.49999,3.38333 -5.48332,1.16666 -12.24998,1.16666 -6.88332,0 -12.94998,-1.86666 -5.94999,-1.98333 -10.38332,-5.83333 -4.43333,-3.84999 -7.11666,-9.68331 -2.56666,-5.95 -2.56666,-13.99998 0,-6.99999 3.85,-13.41665 3.84999,-6.53332 12.36665,-11.54998 8.63332,-5.01666 22.51663,-8.16666 13.88331,-3.26666 33.94995,-3.73333 v -9.21665 q 0,-13.766647 -5.94999,-20.766636 -5.83333,-7.116657 -17.38331,-7.116657 -7.58332,0 -12.83331,1.983331 -5.13333,1.866664 -8.98332,4.31666 -3.73333,2.33333 -6.53333,4.316661 -2.68333,1.866663 -5.36666,1.866663 -2.09999,0 -3.73333,-1.049998 -1.51666,-1.166665 -2.44999,-2.799996 l -3.73333,-6.64999 q 9.79999,-9.449986 21.11664,-14.116646 11.31665,-4.66666 25.08329,-4.66666 9.91666,0 17.61664,3.266662 7.69999,3.266662 12.94998,9.099987 5.25,5.833324 7.93333,14.116646 2.68333,8.283321 2.68333,18.199973 z m -53.89993,-12.71665 q 5.48333,0 10.03332,-1.05 4.55,-1.16666 8.51666,-3.14999 4.08333,-2.1 7.69999,-5.01666 3.73332,-2.91666 7.23332,-6.64999 v -24.61663 q -14.34998,0.46666 -24.3833,2.33333 -10.03332,1.74999 -16.33331,4.66666 -6.29999,2.91666 -9.21665,6.88332 -2.8,3.96666 -2.8,8.86665 0,4.66666 1.51667,8.04999 1.51666,3.38333 4.08332,5.59999 2.56667,2.1 6.06666,3.15 3.5,0.93333 7.58332,0.93333 z M 264.52939,4.4880806 V 176.33783 H 243.76275 V 4.4880806 Z M 304.26276,58.154669 V 176.33783 H 283.49612 V 58.154669 Z m 4.66666,-37.099946 q 0,3.033329 -1.28333,5.716658 -1.16667,2.566663 -3.26667,4.66666 -1.98333,1.983331 -4.66666,3.149996 -2.68333,1.166665 -5.71665,1.166665 -3.03333,0 -5.71666,-1.166665 -2.56667,-1.166665 -4.66666,-3.149996 -1.98333,-2.099997 -3.15,-4.66666 -1.16666,-2.683329 -1.16666,-5.716658 0,-3.033329 1.16666,-5.716658 1.16667,-2.799996 3.15,-4.783327 2.09999,-2.0999966 4.66666,-3.2666615 2.68333,-1.166665 5.71666,-1.166665 3.03332,0 5.71665,1.166665 2.68333,1.1666649 4.66666,3.2666615 2.1,1.983331 3.26667,4.783327 1.28333,2.683329 1.28333,5.716658 z"
     id="text1"
     style="font-size:233.333px;font-family:Lato;-inkscape-font-specification:Lato;letter-spacing:-20px;fill:#6ac5fe"
     aria-label="Kali" />
  <path
     d="m 390.8059,149.27389 q 0.7,1.2 1.2,2.55 0.55,1.3 1.05,2.65 0.5,-1.4 1.05,-2.65 0.55,-1.3 1.25,-2.6 l 24.25,-44.05 q 0.65,-1.15 1.35,-1.4 0.7,-0.25 2,-0.25 h 7.15 v 71.65 h -8.5 v -52.65 q 0,-1.05 0.05,-2.25 0.05,-1.2 0.15,-2.45 l -24.55,44.8 q -1.25,2.25 -3.5,2.25 h -1.4 q -2.25,0 -3.5,-2.25 l -25.1,-44.95 q 0.15,1.3 0.2,2.55 0.1,1.25 0.1,2.3 v 52.65 h -8.5 v -71.65 h 7.15 q 1.3,0 2,0.25 0.7,0.25 1.35,1.4 l 24.75,44.1 z m 97.25,11.1 q 0.8,0 1.45,0.65 l 3.8,4.15 q -4.4,5.1 -10.7,7.95 -6.25,2.85 -15.1,2.85 -7.75,0 -14.05,-2.65 -6.3,-2.7 -10.75,-7.5 -4.45,-4.85 -6.9,-11.6 -2.45,-6.75 -2.45,-14.85 0,-8.1 2.6,-14.85 2.65,-6.75 7.4,-11.6 4.75,-4.85 11.35,-7.5 6.65,-2.7 14.65,-2.7 7.9,0 13.6,2.45 5.75,2.45 10.2,6.65 l -3.15,4.45 q -0.35,0.5 -0.8,0.85 -0.45,0.3 -1.3,0.3 -0.65,0 -1.4,-0.45 -0.7,-0.5 -1.7,-1.2 -1,-0.7 -2.35,-1.5 -1.35,-0.8 -3.2,-1.5 -1.85,-0.7 -4.3,-1.15 -2.45,-0.5 -5.65,-0.5 -5.75,0 -10.55,2 -4.75,1.95 -8.2,5.6 -3.45,3.65 -5.4,8.9 -1.9,5.25 -1.9,11.75 0,6.7 1.9,11.95 1.95,5.25 5.25,8.9 3.35,3.6 7.9,5.5 4.55,1.9 9.8,1.9 3.2,0 5.75,-0.35 2.55,-0.4 4.7,-1.2 2.2,-0.8 4.05,-2 1.9,-1.25 3.8,-2.95 0.85,-0.75 1.65,-0.75 z"
     id="text2"
     style="font-size:100px;font-family:Lato;-inkscape-font-specification:Lato;letter-spacing:-10px;fill:#6ac5fe"
     aria-label="MC" />
</svg>
