<?xml version="1.0"?>
<svg width="94.77" height="122.88" xmlns="http://www.w3.org/2000/svg" xmlns:svg="http://www.w3.org/2000/svg" enable-background="new 0 0 94.77 122.88" version="1.1" xml:space="preserve">
 <style type="text/css">
  <![CDATA[
	.st0{fill-rule:evenodd;clip-rule:evenodd;}
]]>
 </style>

 <g class="layer">
  <title>Layer 1</title>
  <g id="svg_1">
   <path class="st0" d="m15.38,13.38l64.02,0c0.97,0 1.85,0.4 2.48,1.03c0.05,0.05 0.1,0.1 0.14,0.16c0.55,0.62 0.88,1.43 0.88,2.33l0,20c0,0.96 -0.4,1.84 -1.03,2.48l-0.01,0.01c-0.64,0.64 -1.51,1.03 -2.48,1.03l-64,0c-0.98,0 -1.85,-0.4 -2.48,-1.03c-0.05,-0.05 -0.1,-0.1 -0.14,-0.16c-0.55,-0.62 -0.88,-1.43 -0.88,-2.33l0,-20.01c0,-0.96 0.4,-1.83 1.04,-2.47l0.01,-0.01c0.62,-0.64 1.49,-1.03 2.45,-1.03l0,0l0,0zm55.78,7.33l2.3,0l0,12.4l-2.3,0l0,-12.4l0,0l0,0l0,0zm7.78,-3.36l-63.1,0l0,19.09l63.1,0l0,-19.09l0,0l0,0zm-11.92,57.11l11.25,0c0.96,0 1.76,0.78 1.76,1.76l0,9.49c0,0.96 -0.78,1.76 -1.76,1.76l-11.25,0c-0.96,0 -1.76,-0.78 -1.76,-1.76l0,-9.49c0.01,-0.98 0.8,-1.76 1.76,-1.76l0,0l0,0l0,0zm0,-22.56l11.25,0c0.96,0 1.76,0.78 1.76,1.76l0,9.49c0,0.96 -0.78,1.76 -1.76,1.76l-11.25,0c-0.96,0 -1.76,-0.78 -1.76,-1.76l0,-9.49c0.01,-0.97 0.8,-1.76 1.76,-1.76l0,0l0,0l0,0zm0,45.11l11.25,0c0.96,0 1.76,0.78 1.76,1.76l0,9.49c0,0.96 -0.78,1.76 -1.76,1.76l-11.25,0c-0.96,0 -1.76,-0.78 -1.76,-1.76l0,-9.49c0.01,-0.96 0.8,-1.76 1.76,-1.76l0,0l0,0l0,0zm-25.38,-22.55l11.25,0c0.96,0 1.76,0.78 1.76,1.76l0,9.49c0,0.96 -0.78,1.76 -1.76,1.76l-11.25,0c-0.96,0 -1.76,-0.78 -1.76,-1.76l0,-9.49c0.01,-0.98 0.8,-1.76 1.76,-1.76l0,0l0,0l0,0zm0,-22.56l11.25,0c0.96,0 1.76,0.78 1.76,1.76l0,9.49c0,0.96 -0.78,1.76 -1.76,1.76l-11.25,0c-0.96,0 -1.76,-0.78 -1.76,-1.76l0,-9.49c0.01,-0.97 0.8,-1.76 1.76,-1.76l0,0l0,0l0,0zm0,45.11l11.25,0c0.96,0 1.76,0.78 1.76,1.76l0,9.49c0,0.96 -0.78,1.76 -1.76,1.76l-11.25,0c-0.96,0 -1.76,-0.78 -1.76,-1.76l0,-9.49c0.01,-0.96 0.8,-1.76 1.76,-1.76l0,0l0,0l0,0zm-24.91,-45.11l11.25,0c0.96,0 1.76,0.78 1.76,1.76l0,9.49c0,0.96 -0.78,1.76 -1.76,1.76l-11.25,0c-0.96,0 -1.76,-0.78 -1.76,-1.76l0,-9.49c0.01,-0.97 0.8,-1.76 1.76,-1.76l0,0l0,0l0,0zm0,45.11l11.25,0c0.96,0 1.76,0.78 1.76,1.76l0,9.49c0,0.96 -0.78,1.76 -1.76,1.76l-11.25,0c-0.96,0 -1.76,-0.78 -1.76,-1.76l0,-9.49c0.01,-0.96 0.8,-1.76 1.76,-1.76l0,0l0,0l0,0l0,0zm0,-22.55l11.25,0c0.96,0 1.76,0.78 1.76,1.76l0,9.49c0,0.96 -0.78,1.76 -1.76,1.76l-11.25,0c-0.96,0 -1.76,-0.78 -1.76,-1.76l0,-9.49c0.01,-0.98 0.8,-1.76 1.76,-1.76l0,0l0,0l0,0zm-9.69,-74.46l80.7,0c1.93,0 3.68,0.79 4.96,2.06l0.02,0.01c1.27,1.28 2.06,3.03 2.06,4.96l0,108.81c0,1.93 -0.79,3.68 -2.06,4.96l-0.02,0.02c-1.28,1.27 -3.03,2.06 -4.96,2.06l-80.7,0c-1.93,0 -3.68,-0.79 -4.96,-2.06l-0.01,-0.01c-1.28,-1.29 -2.07,-3.04 -2.07,-4.97l0,-108.8c0,-1.93 0.79,-3.68 2.06,-4.96l0.01,-0.01c1.29,-1.28 3.04,-2.07 4.97,-2.07l0,0zm80.7,4.72l-80.7,0c-0.64,0 -1.22,0.26 -1.64,0.68l0,0c-0.42,0.42 -0.68,1 -0.68,1.64l0,108.81c0,0.64 0.26,1.22 0.67,1.63l0.01,0.01c0.41,0.41 0.99,0.67 1.63,0.67l80.7,0c0.64,0 1.22,-0.26 1.63,-0.67l0.01,-0.01c0.41,-0.41 0.67,-0.99 0.67,-1.63l0,-108.81c0,-0.64 -0.26,-1.22 -0.67,-1.63l0,-0.01c-0.41,-0.42 -0.99,-0.68 -1.63,-0.68l0,0z" fill="#007fff" id="svg_2"/>
  </g>
 </g>
</svg>
