<?xml version="1.0"?>
<svg width="122.87999999999998" height="103.56000000000002" xmlns="http://www.w3.org/2000/svg" xmlns:svg="http://www.w3.org/2000/svg" enable-background="new 0 0 122.88 103.56" version="1.1" xml:space="preserve">

 <g class="layer">
  <title>Layer 1</title>
  <g id="svg_1">
   <path d="m59.82,1.72c1.03,-1.69 3.24,-2.23 4.94,-1.2c1.69,1.03 2.23,3.24 1.2,4.94l-30.88,50.46c6.65,4.72 12.18,10.9 16.11,18.07c3.69,6.72 5.99,14.31 6.51,22.37l61.91,0c1.99,0 3.6,1.61 3.6,3.6c0,1.99 -1.61,3.6 -3.6,3.6l-115.69,0l0,-0.01c-0.64,0 -1.29,-0.17 -1.87,-0.53c-1.69,-1.03 -2.23,-3.24 -1.2,-4.94l58.97,-96.36l0,0zm-28.49,60.33l-20.99,34.31l40.14,0c-0.51,-6.82 -2.47,-13.23 -5.59,-18.91c-3.34,-6.09 -7.99,-11.35 -13.56,-15.4l0,0z" fill="#007fff" id="svg_2"/>
  </g>
 </g>
</svg>