<svg xmlns="http://www.w3.org/2000/svg" shape-rendering="geometricPrecision" text-rendering="geometricPrecision" image-rendering="optimizeQuality" fill-rule="evenodd" clip-rule="evenodd" viewBox="0 0 512 500.381"><path fill="#0183E5" fill-rule="nonzero" d="M148.5 234.22l101.348-15.512c-4.533 45.565-15.782 96.144-45.925 138.827-33.716 47.757-91.781 86.386-191.948 98.326-7.436.871-12.76 7.625-11.879 15.071.68 5.735 4.863 10.218 10.147 11.559 32.635 10.889 63.469 16.473 92.411 17.644 79.461 3.273 144.331-26.411 193.76-70.234 48.958-43.394 82.704-100.738 100.407-153.439 6.806-20.195 11.279-39.82 13.37-57.814l85.897 15.452c7.345 1.321 14.391-3.573 15.702-10.919a13.55 13.55 0 00-2.902-11.008L337.456 4.913c-4.774-5.764-13.341-6.575-19.095-1.801l-1.591 1.541-180.53 207.219c-4.924 5.645-4.323 14.232 1.321 19.155a13.544 13.544 0 0010.939 3.193z"/></svg>