<?xml version="1.0"?>
<svg width="512" height="512" xmlns="http://www.w3.org/2000/svg" xmlns:svg="http://www.w3.org/2000/svg" version="1.1" xml:space="preserve">

 <g class="layer">
  <title>Layer 1</title>
  <g id="svg_1">
   <g id="svg_2">
    <path d="m425.62,38.19c-10.86,-36.97 -152.83,-38.19 -169.62,-38.19s-158.76,1.22 -169.62,38.19c-0.64,1.38 -1.05,2.86 -1.05,4.48l0,426.66c0,1.71 0.47,3.33 1.16,4.85c11.67,36.63 152.79,37.82 169.51,37.82c16.79,0 158.76,-1.22 169.62,-38.19c0.64,-1.38 1.05,-2.86 1.05,-4.48l0,-426.66c0,-1.62 -0.41,-3.1 -1.05,-4.48zm-169.62,-16.86c87.72,0 137.69,13.25 148.07,21.34c-10.38,8.08 -60.35,21.33 -148.07,21.33s-137.69,-13.25 -148.07,-21.33c10.38,-8.09 60.35,-21.34 148.07,-21.34zm0,469.34c-91.28,0 -141.27,-14.28 -148.44,-20.72c8.39,-8 58.18,-21.95 148.44,-21.95c91.28,0 141.27,14.27 148.44,20.71c-8.39,8 -58.2,21.96 -148.44,21.96zm149.33,-44.1c-42.64,-19.11 -135.93,-19.9 -149.33,-19.9s-106.69,0.79 -149.33,19.9l0,-381.14c42.64,19.11 135.93,19.9 149.33,19.9s106.69,-0.79 149.33,-19.9l0,381.14z" fill="#007fff" id="svg_3"/>
   </g>
  </g>
 </g>
</svg>
