<?xml version="1.0"?>
<svg width="105.53" height="122.88" xmlns="http://www.w3.org/2000/svg" xmlns:svg="http://www.w3.org/2000/svg" data-name="Layer 1">
 <defs>
  <style>.cls-1{fill-rule:evenodd;}</style>
 </defs>
 <title>generate-report</title>
 <g class="layer">
  <title>Layer 1</title>
  <path class="cls-1" d="m98.66,87l2.84,2.85a1.9,1.9 0 0 1 0,2.71l-2.28,2.29a15.46,15.46 0 0 1 1.42,3.79l3,0a1.92,1.92 0 0 1 1.92,1.92l0,4a1.93,1.93 0 0 1 -1.92,1.93l-3.23,0a15.4,15.4 0 0 1 -1.67,3.67l2.09,2.09a1.93,1.93 0 0 1 0,2.72l-2.83,2.89a1.93,1.93 0 0 1 -2.72,0l-2.28,-2.28a15.88,15.88 0 0 1 -3.84,1.42l0,3a1.93,1.93 0 0 1 -1.92,1.92l-4,0a1.93,1.93 0 0 1 -1.93,-1.92l0,-3.23a15.32,15.32 0 0 1 -3.68,-1.68l-2.09,2.1a1.93,1.93 0 0 1 -2.72,0l-2.82,-2.89a1.91,1.91 0 0 1 0,-2.71l2.28,-2.29a15.88,15.88 0 0 1 -1.42,-3.79l-3,0a1.93,1.93 0 0 1 -1.86,-1.92l0,-4a1.94,1.94 0 0 1 1.92,-1.93l3.18,0a15.43,15.43 0 0 1 1.68,-3.66l-2.1,-2.09a1.93,1.93 0 0 1 0,-2.72l2.85,-2.84a1.91,1.91 0 0 1 2.71,0l2.29,2.28a15.83,15.83 0 0 1 3.79,-1.42l0,-3a1.93,1.93 0 0 1 1.92,-1.92l4,0a1.93,1.93 0 0 1 1.92,1.92l0,3.23a15,15 0 0 1 3.67,1.68l2.11,-2.12a1.94,1.94 0 0 1 2.72,0zm-38.4,30a3,3 0 0 1 0,5.92l-53.37,0a6.89,6.89 0 0 1 -6.89,-6.92l0,-109.15a6.82,6.82 0 0 1 2,-4.85a6.79,6.79 0 0 1 4.88,-2l84.64,0a6.9,6.9 0 0 1 6.89,6.89l0,61.34c0,0.06 0,0.12 0,0.18a3,3 0 0 1 -5.94,0l0,-61.52l0,0a1,1 0 0 0 -0.28,-0.68a1,1 0 0 0 -0.68,-0.29l-84.62,0a0.94,0.94 0 0 0 -1,1l0,109.08l0,0a1,1 0 0 0 0.28,0.67a1,1 0 0 0 0.69,0.29l53.4,0l0,0.04zm-41.26,-14.34l0,-6.66l28.83,0l0,6.63l-28.82,0l-0.01,0.03zm55.3,-42.9l0,6.11l-8.68,0l0,-6.11l8.68,0zm-15.53,-5.38l0,11.49l-8.69,0l0,-11.49l8.69,0zm-15.53,-16.46l0,28l-8.69,0l0,-28l8.69,0zm-15.54,-11.51l0,39.46l-8.7,0l0,-39.46l8.7,0zm41.3,2.9l13.11,0.05a13.14,13.14 0 0 1 -3.91,9.29a13.55,13.55 0 0 1 -1.91,1.56l-7.29,-10.9zm-1.34,-2.6l-0.66,-14.01a0.51,0.51 0 0 1 0.48,-0.53l0.52,0a14.56,14.56 0 0 1 14.69,13.5a0.52,0.52 0 0 1 -0.47,0.54l-14,1a0.49,0.49 0 0 1 -0.53,-0.46a0.08,0.08 0 0 0 0,0l-0.03,-0.04zm0.83,-13.55l0.65,12.51l11.76,-1.06a11.68,11.68 0 0 0 -4,-7.86c-2.46,-2.27 -4.74,-3.62 -8.32,-3.58l-0.09,-0.01zm-2.39,15.54l7,12.17a14.05,14.05 0 1 1 -9.04,-26.07l2,13.9l0.04,0zm-47.1,56.13l0,-6.68l40.86,0l0,6.63l-40.86,0.05zm66.73,9.38a7.89,7.89 0 1 1 -7.89,7.89a7.89,7.89 0 0 1 7.89,-7.89z" fill="#007fff" id="svg_1"/>
 </g>
</svg>