<svg id="Layer_1" data-name="Layer 1" xmlns="http://www.w3.org/2000/svg" viewBox="0 0 109.93 122.88"><defs><style>.cls-1{fill:gray;}.cls-1,.cls-2,.cls-3,.cls-4{fill-rule:evenodd;}.cls-2{fill:#ff5255;}.cls-3{fill:#46926f;}.cls-4{fill:#ffd736;}</style></defs><title>science-atom</title><path d="M107.78,92.16c-3.44,6-12.68,7.61-24.82,5.43a87.6,87.6,0,0,1-8.69-2,86.88,86.88,0,0,1-2.57,8.55c-4.18,11.61-10.22,18.79-17.12,18.79s-12.93-7.18-17.12-18.79c-.94-2.63-1.8-5.49-2.56-8.55-1.5.43-3,.81-4.41,1.15,0-.16,0-.32,0-.48a10.53,10.53,0,0,0-.69-3.74c1.35-.33,2.72-.69,4.13-1.1A136,136,0,0,1,31.6,74.7,138.14,138.14,0,0,1,18.35,64.35a80.75,80.75,0,0,0-6,6.35C5.59,78.7,2.63,85.78,5.08,90A7.92,7.92,0,0,0,9.75,93.4a10.72,10.72,0,0,0-.28,4.29c-3.72-1-6.51-2.8-8.09-5.53-3.45-6-.26-14.8,7.7-24.22a86.36,86.36,0,0,1,6.13-6.5,86.36,86.36,0,0,1-6.13-6.5c-8-9.42-11.15-18.24-7.7-24.22s12.68-7.61,24.82-5.43a87.76,87.76,0,0,1,8.7,2.05c.29-1.17.6-2.32.92-3.44a10.32,10.32,0,0,0,4,1.45c-.3,1.06-.59,2.15-.86,3.26a139.67,139.67,0,0,1,15.6,6.3,139.67,139.67,0,0,1,15.6-6.3,82.07,82.07,0,0,0-2.49-8.38c-3.56-9.85-8.2-15.95-13.11-15.95-2,0-4,1.06-5.92,3A10.57,10.57,0,0,0,45.05,5c2.88-3.21,6.1-5,9.53-5,6.9,0,12.94,7.18,17.12,18.79a86.88,86.88,0,0,1,2.57,8.55A86.94,86.94,0,0,1,83,25.29c12.14-2.18,21.38-.54,24.82,5.43s.26,14.8-7.7,24.22A88.22,88.22,0,0,1,94,61.44C95.55,63,97,64.5,98.39,66a10.84,10.84,0,0,0-3.08,2.14h0l-.38.4c-1.27-1.39-2.64-2.8-4.11-4.21A139.58,139.58,0,0,1,77.56,74.7a136,136,0,0,1-2.35,16.67,84.84,84.84,0,0,0,8.51,2c10.31,1.85,17.91.87,20.37-3.37a7.08,7.08,0,0,0,.83-4,10.47,10.47,0,0,0,4-1.76,11.6,11.6,0,0,1-1.16,8Zm-37.6,2.11A139.55,139.55,0,0,1,54.59,88,137.9,137.9,0,0,1,39,94.27a84.62,84.62,0,0,0,2.5,8.38c3.55,9.85,8.2,15.95,13.1,15.95s9.55-6.1,13.11-15.95a82.07,82.07,0,0,0,2.49-8.38ZM38,90.09c3.74-1.25,7.63-2.78,11.63-4.56q-3.41-1.75-6.83-3.73h0l-.11-.07q-3.37-2-6.55-4c.45,4.35,1.08,8.48,1.86,12.34ZM73,77.75c-2.14,1.38-4.36,2.73-6.64,4l0,0q-3.4,2-6.8,3.71c4,1.79,7.89,3.31,11.62,4.56.78-3.86,1.41-8,1.86-12.34Zm2.23-46.24a136,136,0,0,1,2.35,16.67A139.58,139.58,0,0,1,90.82,58.53a84.66,84.66,0,0,0,6-6.35c6.76-8,9.71-15.08,7.27-19.32S94,27.64,83.72,29.49a84.84,84.84,0,0,0-8.51,2Zm2.7,22.15c.12,2.55.18,5.15.18,7.78s-.06,5.23-.18,7.78c3.54-2.56,6.8-5.17,9.75-7.78-3-2.61-6.21-5.22-9.75-7.78ZM31.25,69.22q-.18-3.82-.18-7.78c0-2.63.06-5.23.18-7.78-3.53,2.56-6.8,5.17-9.74,7.78,2.94,2.61,6.21,5.22,9.74,7.78Zm.35-21A138,138,0,0,1,34,31.51a84,84,0,0,0-8.5-2c-10.31-1.85-17.92-.87-20.37,3.37s.51,11.32,7.26,19.32a82.87,82.87,0,0,0,6,6.35A138.14,138.14,0,0,1,31.6,48.18ZM38,32.79c-.78,3.86-1.41,8-1.86,12.34q3.23-2.07,6.64-4.05l0,0c2.27-1.31,4.55-2.55,6.8-3.71-4-1.79-7.88-3.31-11.62-4.56ZM35.72,50.54c-.24,3.53-.37,7.17-.37,10.9s.13,7.37.37,10.9q4.37,2.93,9.16,5.71l.11.06q4.83,2.79,9.59,5.12c3.13-1.54,6.31-3.23,9.49-5.06a1.74,1.74,0,0,1,.26-.15q4.77-2.76,9.12-5.68c.23-3.53.36-7.17.36-10.9s-.13-7.37-.36-10.9q-4.36-2.92-9.17-5.71l-.11-.06c-3.21-1.86-6.42-3.57-9.58-5.12q-4.71,2.31-9.5,5.06a1.35,1.35,0,0,1-.26.15c-3.17,1.84-6.22,3.74-9.11,5.68ZM73,45.13c-.45-4.35-1.08-8.48-1.86-12.34C67.39,34,63.49,35.57,59.5,37.35c2.26,1.17,4.54,2.41,6.82,3.73h0l.1.07c2.25,1.3,4.44,2.63,6.55,4Z"/><path class="cls-1" d="M54.58,52.89A8.55,8.55,0,1,1,46,61.44a8.55,8.55,0,0,1,8.55-8.55Z"/><path class="cls-2" d="M41.34,7.75a7.14,7.14,0,1,1-7.14,7.14,7.15,7.15,0,0,1,7.14-7.14Z"/><path class="cls-3" d="M19.94,89.07a7.14,7.14,0,1,1-7.14,7.14,7.14,7.14,0,0,1,7.14-7.14Z"/><path class="cls-4" d="M102.79,68.47a7.15,7.15,0,1,1-7.15,7.15,7.15,7.15,0,0,1,7.15-7.15Z"/></svg>